<svg id="visual" viewBox="0 0 960 540" width="960" height="540" xmlns="http://www.w3.org/2000/svg" xmlns:xlink="http://www.w3.org/1999/xlink" version="1.1"><rect x="0" y="0" width="960" height="540" fill="#002233"></rect><path d="M0 400L26.7 398.7C53.3 397.3 106.7 394.7 160 395C213.3 395.3 266.7 398.7 320 394.3C373.3 390 426.7 378 480 360.2C533.3 342.3 586.7 318.7 640 317.5C693.3 316.3 746.7 337.7 800 344.7C853.3 351.7 906.7 344.3 933.3 340.7L960 337L960 541L933.3 541C906.7 541 853.3 541 800 541C746.7 541 693.3 541 640 541C586.7 541 533.3 541 480 541C426.7 541 373.3 541 320 541C266.7 541 213.3 541 160 541C106.7 541 53.3 541 26.7 541L0 541Z" fill="#0066FF" stroke-linecap="round" stroke-linejoin="miter"></path></svg>